<?xml version="1.0" encoding="iso-8859-1"?>
<!-- Uploaded to: SVG Repo, www.svgrepo.com, Generator: SVG Repo Mixer Tools -->
<svg height="800px" width="800px" version="1.1" id="Layer_1" xmlns="http://www.w3.org/2000/svg" xmlns:xlink="http://www.w3.org/1999/xlink" 
	 viewBox="0 0 512 512" xml:space="preserve">
<path style="fill:#FA6E51;" d="M0,256.006C0,397.402,114.606,512.004,255.996,512C397.394,512.004,512,397.402,512,256.006
	C512.009,114.61,397.394,0,255.996,0C114.606,0,0,114.614,0,256.006z"/>
<path style="fill:#E8573F;" d="M512,256.005c0-7.154-0.37-14.218-0.944-21.223c-0.171-0.179-0.299-0.391-0.509-0.541
	c-0.078-0.054-84.557-84.498-84.636-84.553c-0.413-0.508-0.795-1.041-1.355-1.438c-0.078-0.055-0.161-0.101-0.24-0.157
	c-0.414-0.507-0.795-1.04-1.355-1.436c-49.015-34.683-106.709-53.013-166.846-53.013c-60.143,0-117.841,18.33-166.857,53.013
	c-3.327,2.353-4.116,6.961-1.763,10.287c0.42,0.594,0.98,1.007,1.524,1.436c0.033,0.049,50.21,50.271,50.613,50.633
	c-2.096,1.349-4.242,2.599-6.295,4.026c-3.347,2.324-4.176,6.922-1.853,10.27c0.388,0.558,51.901,51.798,52.385,52.208
	c-2.119,1.247-4.246,2.483-6.305,3.846c-3.401,2.252-4.331,6.829-2.083,10.226c0.39,0.592,50.909,50.883,50.958,50.957
	c0.146,0.222,0.396,0.308,0.561,0.509c-9.06,8.118-14.895,19.839-14.895,33.02c0,12.643,5.328,23.993,13.754,32.067
	c0.516,0.547,94.998,95.021,95.546,95.545c0.468,0.497,0.95,0.967,1.44,1.44C431.81,473.728,512,374.265,512,256.005z"/>
<g>
	<path style="fill:#F6F6F6;" d="M255.866,329.797c-24.128,0-43.756,19.861-43.756,44.278c0,24.416,19.628,44.278,43.756,44.278
		s43.759-19.861,43.759-44.278C299.625,349.659,279.994,329.797,255.866,329.797z M255.866,403.594
		c-15.988,0-28.996-13.243-28.996-29.519c0-16.276,13.008-29.519,28.996-29.519c15.991,0,28.999,13.243,28.999,29.519
		C284.865,390.352,271.857,403.594,255.866,403.594z"/>
	<path style="fill:#F6F6F6;" d="M334.224,279.367C311.145,264.079,284.062,256,255.908,256c-28.16,0-55.25,8.079-78.341,23.364
		c-3.402,2.252-4.332,6.829-2.083,10.226c1.42,2.147,3.77,3.308,6.162,3.308c1.398,0,2.814-0.397,4.065-1.226
		c20.669-13.682,44.941-20.914,70.197-20.914c25.245,0,49.51,7.232,70.164,20.91c3.398,2.256,7.974,1.318,10.226-2.076
		C338.551,286.196,337.622,281.616,334.224,279.367z"/>
	<path style="fill:#F6F6F6;" d="M255.941,174.823c-44.195,0-86.589,13.214-122.601,38.218c-3.347,2.324-4.176,6.922-1.852,10.27
		c1.435,2.065,3.729,3.171,6.068,3.171c1.452,0,2.918-0.426,4.202-1.318c33.53-23.278,73.011-35.58,114.183-35.58
		c41.175,0,80.654,12.302,114.17,35.58c3.347,2.327,7.946,1.495,10.27-1.852c2.324-3.347,1.495-7.946-1.852-10.27
		C342.533,188.037,300.14,174.823,255.941,174.823z"/>
	<path style="fill:#F6F6F6;" d="M422.964,146.659c-49.017-34.683-106.71-53.012-166.847-53.012
		c-60.144,0-117.841,18.331-166.858,53.012c-3.326,2.353-4.115,6.962-1.762,10.288c2.353,3.326,6.965,4.115,10.288,1.762
		c46.509-32.91,101.262-50.303,158.332-50.303c57.067,0,111.812,17.393,158.321,50.303c1.294,0.915,2.782,1.355,4.256,1.355
		c2.314,0,4.594-1.085,6.032-3.117C427.079,153.621,426.29,149.012,422.964,146.659z"/>
</g>
</svg>